<svg xmlns="http://www.w3.org/2000/svg" width="30" height="30" viewBox="0 0 30 30"><defs><style>.a{fill:#fff;}</style></defs><g transform="translate(-635 -440)"><rect class="a" width="30" height="30" transform="translate(635 440)"/><g transform="translate(839.432 -968.088)"><path d="M-179.425,1422.827a10.03,10.03,0,0,0-3.486-4.756,10.553,10.553,0,0,0-6.52-2.153c-.2,0-.4-.008-.6,0a10.529,10.529,0,0,0-2.556.443,10.516,10.516,0,0,0-3.457,1.779,10.091,10.091,0,0,0-3.392,4.686.731.731,0,0,0,0,.5,10.046,10.046,0,0,0,3.483,4.758,10.589,10.589,0,0,0,5.356,2.11,10.842,10.842,0,0,0,3.993-.3,10.5,10.5,0,0,0,4.113-2.136,10.07,10.07,0,0,0,3.067-4.42A.741.741,0,0,0-179.425,1422.827Zm-1.47.345a8.733,8.733,0,0,1-3.41,4.144,9.14,9.14,0,0,1-3.694,1.4,9.805,9.805,0,0,1-1.431.11,9.282,9.282,0,0,1-6.091-2.235,8.562,8.562,0,0,1-2.444-3.416.233.233,0,0,1,0-.187,8.7,8.7,0,0,1,2.9-3.789,9.11,9.11,0,0,1,3.426-1.605,9.472,9.472,0,0,1,3.288-.2,9.177,9.177,0,0,1,4.352,1.656,8.69,8.69,0,0,1,3.1,3.931A.232.232,0,0,1-180.9,1423.172Z" transform="translate(0)"/><path d="M-26.119,1500.03a4.31,4.31,0,0,0-4.307,4.3,4.311,4.311,0,0,0,4.309,4.311,4.31,4.31,0,0,0,4.306-4.3A4.31,4.31,0,0,0-26.119,1500.03Zm0,7.18a2.873,2.873,0,0,1-2.872-2.872,2.872,2.872,0,0,1,2.872-2.872,2.872,2.872,0,0,1,2.872,2.871A2.873,2.873,0,0,1-26.117,1507.21Z" transform="translate(-163.314 -81.257)"/></g></g></svg>