<svg xmlns="http://www.w3.org/2000/svg" width="30" height="30" viewBox="0 0 30 30"><defs><style>.a{fill:#fff;}</style></defs><g transform="translate(-603 -440)"><rect class="a" width="30" height="30" transform="translate(603 440)"/><path d="M1218.84,1249.642c-.024-.024-.045-.049-.066-.071.208-.164.414-.319.61-.485a8.846,8.846,0,0,0,2.693-3.884.635.635,0,0,0,0-.44,8.961,8.961,0,0,0-4.63-5.141,9.188,9.188,0,0,0-3.143-.894,9.65,9.65,0,0,0-2.9.13,9.231,9.231,0,0,0-2.42.835.082.082,0,0,1-.115-.02c-.1-.109-.211-.213-.317-.319l-3-3a.64.64,0,0,0-.432-.2.631.631,0,0,0-.462,1.094l3.083,3.083c.02.02.039.042.062.067-.115.087-.221.164-.324.245s-.211.166-.313.253a8.86,8.86,0,0,0-2.672,3.871.63.63,0,0,0,0,.432c.022.062.042.124.066.186a8.966,8.966,0,0,0,4.379,4.866,9.254,9.254,0,0,0,3.326.987,9.645,9.645,0,0,0,3.211-.2,9.211,9.211,0,0,0,2.113-.767.087.087,0,0,1,.121.021q.631.635,1.265,1.267l2.052,2.051a.609.609,0,0,0,.657.169.629.629,0,0,0,.231-1.065Zm-2.486-.2a8.137,8.137,0,0,1-1.876.5,8.261,8.261,0,0,1-2.443-.011,8.009,8.009,0,0,1-4.944-2.709,7.374,7.374,0,0,1-1.306-2.161.206.206,0,0,1,0-.165,7.67,7.67,0,0,1,2.545-3.324c.107-.081.218-.155.326-.235a.065.065,0,0,1,.1.006q.7.7,1.4,1.4c.037.037.032.061.005.1a3.778,3.778,0,0,0-.106,4.111,3.656,3.656,0,0,0,2.112,1.64,3.713,3.713,0,0,0,3.252-.489c.043-.029.067-.031.105.007q.564.568,1.131,1.132a.7.7,0,0,1,.045.055C1216.58,1249.35,1216.468,1249.4,1216.354,1249.445Zm-1.816-2.284a2.513,2.513,0,0,1-3.433-3.434Zm-2.506-4.361a2.512,2.512,0,0,1,3.433,3.434Zm5.887,5.818a.077.077,0,0,1-.118-.013q-.687-.69-1.377-1.377a.076.076,0,0,1-.012-.117,3.783,3.783,0,0,0-5.261-5.253c-.043.028-.068.03-.105-.008q-.564-.568-1.131-1.132c-.014-.014-.025-.031-.047-.058.2-.079.386-.16.578-.229a8.286,8.286,0,0,1,9.114,2.405,7.247,7.247,0,0,1,1.228,2.072.189.189,0,0,1,0,.15A7.714,7.714,0,0,1,1217.919,1248.618Z" transform="translate(-595.285 -789.982)"/></g></svg>